<?xml version="1.0" standalone="no"?><!DOCTYPE svg PUBLIC "-//W3C//DTD SVG 1.1//EN" "http://www.w3.org/Graphics/SVG/1.1/DTD/svg11.dtd"><svg t="1607601102920" class="icon" viewBox="0 0 1024 1024" version="1.1" xmlns="http://www.w3.org/2000/svg" p-id="4176" width="16" height="16" xmlns:xlink="http://www.w3.org/1999/xlink"><defs><style type="text/css"></style></defs><path d="M775.168 143.7696a51.8656 51.8656 0 0 1 0 73.3184l-47.36 47.36h48.4864A155.5456 155.5456 0 0 1 931.84 420.0448v311.04a155.5456 155.5456 0 0 1-155.4944 155.4944H257.8944A155.4944 155.4944 0 0 1 102.4 731.0848V420.0448a155.5456 155.5456 0 0 1 155.4944-155.5456h48.384l-47.3088-47.36a51.8144 51.8144 0 1 1 73.2672-73.3184l109.9776 109.9776a51.2 51.2 0 0 1 8.192 10.6496H583.68a50.5856 50.5856 0 0 1 8.2432-10.7008l109.9776-109.9776a51.8656 51.8656 0 0 1 73.3184 0z m1.1264 224.768H257.8944c-27.136 0-49.664 20.9408-51.712 47.9744l-0.1024 3.9424v311.04c0 27.2896 21.1456 49.664 47.9744 51.6608l3.84 0.1536h518.4c27.136 0 49.7152-20.8896 51.712-47.9744l0.1536-3.84V420.4544c0-28.672-23.2448-51.8656-51.8656-51.8656z m-414.72 103.68c28.672 0 51.8656 23.2448 51.8656 51.8656v51.8144a51.8656 51.8656 0 0 1-103.68 0v-51.8144c0-28.672 23.2448-51.8656 51.8656-51.8656z m311.04 0c28.672 0 51.8656 23.2448 51.8656 51.8656v51.8144a51.8656 51.8656 0 0 1-103.68 0v-51.8144c0-28.672 23.2448-51.8656 51.8144-51.8656z" p-id="4177"></path></svg>