<?xml version="1.0" standalone="no"?><!DOCTYPE svg PUBLIC "-//W3C//DTD SVG 1.1//EN" "http://www.w3.org/Graphics/SVG/1.1/DTD/svg11.dtd"><svg t="1607599363978" class="icon" viewBox="0 0 1202 1024" version="1.1" xmlns="http://www.w3.org/2000/svg" p-id="3799" width="56.34375" height="48" xmlns:xlink="http://www.w3.org/1999/xlink"><defs><style type="text/css"></style></defs><path d="M455.393789 948.313043s-68.690683-10.812422-136.109317-84.591304c-67.418634-74.414907-78.867081-152.645963-78.867081-152.645963s85.863354 20.352795 147.557764 27.349069c108.760248 12.084472 206.708075 5.724224 252.501864 0.636025 99.855901-10.812422 153.281988-29.257143 174.906832-34.345342 127.204969-30.529193 249.957764-113.212422 249.957764-113.212422s15.264596 96.039752-56.606211 202.2559c-27.985093 41.341615-83.95528 89.043478-148.829814 122.11677-220.700621 93.495652-404.511801 32.437267-404.511801 32.437267z" fill="#2c2c2c" p-id="3800"></path><path d="M976.298137 403.875776c-23.532919-28.621118-102.4-164.09441-262.678261-183.81118-40.70559-5.088199-256.954037 3.816149-386.703106 123.38882-12.720497 12.084472-78.867081 69.962733-100.491925 177.450932-17.172671 83.319255 10.812422 176.814907 10.812422 176.814907S381.614907 728.248447 489.73913 725.068323c171.726708-4.452174 258.226087-19.71677 347.90559-46.429814 132.293168-40.069565 225.78882-106.852174 225.78882-106.852174s-62.96646-139.289441-87.135403-167.910559zM480.834783 609.947826c-72.506832 4.452174-135.473292-50.245963-139.925466-122.752795-4.452174-71.870807 50.881988-134.837267 123.38882-139.289441C536.804969 343.453416 599.771429 398.151553 604.223602 470.658385c4.452174 71.870807-50.881988 134.837267-123.388819 139.289441z m370.802484-93.495652c-45.793789 2.544099-85.227329-31.801242-87.771428-77.595031-2.544099-45.157764 32.437267-84.591304 77.595031-87.771429 45.793789-3.180124 85.227329 31.801242 87.771428 76.959006 3.180124 46.429814-31.801242 85.863354-77.595031 88.407454z" fill="#2c2c2c" p-id="3801"></path><path d="M914.603727 310.380124l41.977639-50.245963s57.878261 28.621118 94.767702 82.047205c36.889441 53.426087 61.058385 101.763975 61.058385 101.763976L1043.080745 485.922981s-21.624845-51.518012-53.426087-92.859627c-31.801242-40.70559-75.050932-82.68323-75.050931-82.68323z" fill="#2c2c2c" p-id="3802"></path><path d="M1045.624845 344.725466c10.812422-6.360248 29.257143-7.632298 27.985093-22.896895-0.636025-15.264596-10.812422-45.157764 19.080745-55.334161 30.529193-10.176398 13.356522 8.904348 3.180124 22.26087s-6.996273 21.624845-5.724223 40.70559c1.27205 19.080745-12.084472 26.077019-33.073292 35.617391-20.98882 9.540373-22.26087-13.992547-11.448447-20.352795zM279.214907 375.890683s-48.337888 55.970186-60.42236 106.852174c-12.084472 50.881988-9.540373 111.940373-9.540373 111.940373l-71.234783-24.804969s-3.816149-70.598758 28.621118-127.204969c36.253416-62.96646 82.68323-91.587578 82.68323-91.587578l29.893168 24.804969z" fill="#2c2c2c" p-id="3803"></path><path d="M174.270807 439.493168c-11.448447-7.632298-12.720497-25.440994-21.624844-37.525466-9.540373-12.084472-11.448447-5.088199-32.437267-5.088199s-21.624845-10.176398-27.349069-15.264596c-5.724224-5.088199-8.904348 15.900621-8.904347 15.900621s3.816149 17.808696 26.713043 19.080745c22.26087 1.27205 21.624845-9.540373 31.801242 10.812423 9.540373 20.352795 28.621118 35.617391 28.621118 35.617391s14.628571-15.900621 3.180124-23.532919zM553.97764 172.998758c117.664596-29.257143 190.807453 4.452174 190.807453 4.452174l-6.360248 33.709316s-85.863354-5.724224-153.918013 4.452174c-68.054658 9.540373-99.219876 31.165217-99.219875 31.165218L470.658385 213.068323c0.636025 0 32.437267-27.349068 83.319255-40.069565z" fill="#2c2c2c" p-id="3804"></path><path d="M588.959006 124.66087l16.536646-5.724224 22.26087 58.514286-16.536646 6.360248zM1106.68323 233.421118c16.536646-0.636025 30.529193 11.448447 31.801242 27.985093 1.27205 16.536646-11.448447 30.529193-27.985093 31.801242-16.536646 1.27205-30.529193-11.448447-31.801242-27.985093-1.27205-16.536646 11.448447-30.529193 27.985093-31.801242zM75.050932 347.269565c16.536646-1.27205 30.529193 11.448447 31.801242 27.985093 0.636025 16.536646-11.448447 30.529193-28.621118 31.801243-16.536646 1.27205-30.529193-11.448447-31.801242-27.985094-0.636025-16.536646 12.084472-30.529193 28.621118-31.801242z" fill="#2c2c2c" p-id="3805"></path><path d="M603.587578 49.609938c26.077019-1.27205 48.973913 18.44472 50.881987 44.521739 1.27205 26.077019-18.44472 48.973913-45.157764 50.245963-26.713043 1.908075-48.973913-17.808696-50.881987-44.521739-1.27205-25.440994 18.44472-48.337888 45.157764-50.245963z" fill="#2c2c2c" p-id="3806"></path></svg>